# xmcd
#
# Track frame offsets: 
#        150
#        21439
#        38492
#        54331
#        74567
#        100115
#        117279
#        139464
#        161891
#        183481
#        198318
#
# Disc length: 2883 seconds
#
# Revision: 0
# Processed by: cddbd v1.5.2PL0 Copyright (c) Steve Scherf et al.
# Submitted via: ExactAudioCopyFreeDBPlugin 1.0
#
DISCID=9e0b410b
DTITLE=Racky Thomas - Goin' Home
DYEAR=2015
DGENRE=Blues
TTITLE0=France Blues
TTITLE1=Ready, Willing and Able
TTITLE2=Goin' Away Blues
TTITLE3=Goin' Home
TTITLE4=Must Have Been The Devil
TTITLE5=Stack O' Lee
TTITLE6=Down In The Bottom
TTITLE7=Big Road Blues
TTITLE8=Mary, Don't You Weep
TTITLE9=Roll 'em Pete
TTITLE10=Good Night Irene
EXTD=
EXTT0=
EXTT1=
EXTT2=
EXTT3=
EXTT4=
EXTT5=
EXTT6=
EXTT7=
EXTT8=
EXTT9=
EXTT10=
PLAYORDER=
